name analog
datacolumns 19
datarows 37
range 0.1595 0.1775
endheader
time	ground_force_vx	ground_force_vy	ground_force_vz	ground_force_px	ground_force_py	ground_force_pz	l_ground_force_vx	l_ground_force_vy	l_ground_force_vz	l_ground_force_px	l_ground_force_py	l_ground_force_pz	ground_torque_x	ground_torque_y	ground_torque_z	l_ground_torque_x	l_ground_torque_y	l_ground_torque_z
0.1595	-0.0	-0.0	-0.0	2.454416036605835	23.15218544006348	-329.07763671875	6.884657859802246	-28.948036193847656	-356.4838256835937	-0.0	-0.0	-0.0	-0.0	-0.0	-0.0	87322.3828125	-1455.5167236328125	-5286.2626953125
0.16	-0.0	-0.0	-0.0	1.749735951423645	23.050331115722656	-328.5938415527344	7.131259918212891	-28.338645935058597	-358.49322509765625	-0.0	-0.0	-0.0	-0.0	-0.0	-0.0	87083.796875	-1099.510498046875	-5244.7919921875
0.1605	-0.0	-0.0	-0.0	1.2478240728378296	23.60855484008789	-329.0329284667969	6.519591331481934	-28.239887237548828	-358.3637084960937	-0.0	-0.0	-0.0	-0.0	-0.0	-0.0	86870.90625	-1068.1124267578125	-5371.72802734375
0.161	-0.0	-0.0	-0.0	1.2489471435546875	23.608478546142575	-329.826171875	6.154054164886475	-27.82133102416992	-355.6961975097656	-0.0	-0.0	-0.0	-0.0	-0.0	-0.0	87003.1484375	-979.9241943359376	-5390.50732421875
0.1615	-0.0	-0.0	-0.0	0.7917420268058777	23.79781723022461	-327.9275817871094	6.098910331726074	-27.412776947021484	-356.26531982421875	-0.0	-0.0	-0.0	-0.0	-0.0	-0.0	86634.1875	-721.0794067382812	-5460.80859375
0.162	-0.0	-0.0	-0.0	0.6132495999336243	23.920589447021484	-329.2081298828125	6.27658224105835	-27.291400909423828	-359.1893615722656	-0.0	-0.0	-0.0	-0.0	-0.0	-0.0	86860.6796875	-899.6585693359375	-5479.14208984375
0.1625	-0.0	-0.0	-0.0	0.7249857783317566	24.176921844482425	-329.1636962890625	6.40960693359375	-26.155391693115234	-358.4061279296875	-0.0	-0.0	-0.0	-0.0	-0.0	-0.0	86987.0	-507.3591918945313	-5323.19873046875
0.163	-0.0	-0.0	-0.0	0.9034782648086548	23.831905364990234	-332.5604248046875	6.9081549644470215	-25.50249290466309	-358.9278564453125	-0.0	-0.0	-0.0	-0.0	-0.0	-0.0	87223.6875	-385.65728759765625	-5144.76513671875
0.1635	-0.0	-0.0	-0.0	1.3724486827850342	23.79781723022461	-332.34234619140625	7.351652145385742	-24.70748519897461	-359.7154541015625	-0.0	-0.0	-0.0	-0.0	-0.0	-0.0	87757.5703125	-331.4044494628906	-5047.7265625
0.164	-0.0	-0.0	-0.0	1.2604551315307615	24.17448234558105	-332.8208923339844	7.594866752624512	-24.519317626953125	-361.8559265136719	-0.0	-0.0	-0.0	-0.0	-0.0	-0.0	88300.2265625	-403.9022216796875	-5194.96533203125
0.1645	-0.0	-0.0	-0.0	0.3915805518627167	23.77467918395996	-334.0623779296875	7.13133716583252	-24.365345001220703	-363.25335693359375	-0.0	-0.0	-0.0	-0.0	-0.0	-0.0	88822.859375	-226.53842163085935	-5081.35302734375
0.165	-0.0	-0.0	-0.0	-0.2093454599380493	24.75091552734375	-334.4774169921875	7.077564239501953	-24.276945114135746	-367.86920166015625	-0.0	-0.0	-0.0	-0.0	-0.0	-0.0	89366.6796875	-46.33788299560547	-5166.5439453125
0.1655	-0.0	-0.0	-0.0	-0.7911668419837952	23.78610038757324	-338.0678100585937	7.120140552520752	-23.91200065612793	-367.0957946777344	-0.0	-0.0	-0.0	-0.0	-0.0	-0.0	89865.578125	29.210527420043945	-5022.01708984375
0.166	-0.0	-0.0	-0.0	-1.8683032989501955	24.11899757385254	-336.29425048828125	6.70011568069458	-22.933568954467773	-368.8690490722656	-0.0	-0.0	-0.0	-0.0	-0.0	-0.0	89795.40625	6.476573467254639	-5047.8603515625
0.1665	-0.0	-0.0	-0.0	-1.8079476356506348	24.118764877319336	-338.04022216796875	6.907662391662598	-22.55721092224121	-368.4013366699219	-0.0	-0.0	-0.0	-0.0	-0.0	-0.0	89822.75	343.7460632324219	-5144.5126953125
0.167	-0.0	-0.0	-0.0	-3.014976739883423	23.762052536010746	-339.16973876953125	6.156570911407471	-22.42191696166992	-367.0516052246094	-0.0	-0.0	-0.0	-0.0	-0.0	-0.0	89660.234375	387.0702209472656	-5382.3876953125
0.1675	-0.0	-0.0	-0.0	-4.055670738220215	23.85778045654297	-339.2158508300781	5.382210731506348	-22.42184829711914	-367.65667724609375	-0.0	-0.0	-0.0	-0.0	-0.0	-0.0	89721.921875	406.62200927734375	-5529.125
0.168	-0.0	-0.0	-0.0	-4.870335102081299	23.679906845092773	-337.1249694824219	5.229155540466309	-22.32151222229004	-365.7221374511719	-0.0	-0.0	-0.0	-0.0	-0.0	-0.0	89516.6640625	797.1118774414062	-5566.76220703125
0.1685	-0.0	-0.0	-0.0	-5.441841125488281	23.22244071960449	-339.100830078125	5.097010612487793	-22.24506378173828	-365.41943359375	-0.0	-0.0	-0.0	-0.0	-0.0	-0.0	88962.6875	948.4778442382812	-5480.36181640625
0.169	-0.0	-0.0	-0.0	-6.029646873474121	22.98343276977539	-336.9965209960937	4.689540863037109	-22.257064819335938	-363.51458740234375	-0.0	-0.0	-0.0	-0.0	-0.0	-0.0	88392.09375	1258.5357666015625	-5583.21435546875
0.1695	-0.0	-0.0	-0.0	-6.626165866851807	22.85738182067871	-335.16778564453125	4.395636081695557	-21.63553047180176	-361.2148742675781	-0.0	-0.0	-0.0	-0.0	-0.0	-0.0	87651.046875	1165.222900390625	-5642.61669921875
0.17	-0.0	-0.0	-0.0	-7.6103196144104	22.399131774902344	-335.16778564453125	4.282646656036377	-21.498802185058597	-359.1209411621094	-0.0	-0.0	-0.0	-0.0	-0.0	-0.0	87350.7734375	1489.5980224609375	-5638.58203125
0.1705	-0.0	-0.0	-0.0	-8.244670867919922	22.46302795410156	-333.8128356933594	4.181748390197754	-21.55049133300781	-358.6273193359375	-0.0	-0.0	-0.0	-0.0	-0.0	-0.0	87202.9921875	1850.988525390625	-5540.6455078125
0.171	-0.0	-0.0	-0.0	-8.755135536193848	22.2309513092041	-333.5570373535156	4.511838436126709	-20.439380645751957	-357.32867431640625	-0.0	-0.0	-0.0	-0.0	-0.0	-0.0	86951.8046875	1869.003173828125	-5527.79541015625
0.1715	-0.0	-0.0	-0.0	-9.099472045898438	21.964982986450195	-331.1335144042969	4.359302520751953	-19.50667381286621	-357.1330261230469	-0.0	-0.0	-0.0	-0.0	-0.0	-0.0	86476.1875	2076.9296875	-5451.22998046875
0.17200000000000001	-0.0	-0.0	-0.0	-9.954331398010254	21.48042678833008	-330.2232666015625	4.25811767578125	-19.039995193481445	-354.537109375	-0.0	-0.0	-0.0	-0.0	-0.0	-0.0	86429.75	2286.90283203125	-5358.1240234375
0.17250000000000001	-0.0	-0.0	-0.0	-9.85152816772461	21.060413360595703	-331.0815124511719	4.423328399658203	-18.635875701904297	-353.3398742675781	-0.0	-0.0	-0.0	-0.0	-0.0	-0.0	86227.078125	2312.19580078125	-5544.54541015625
0.17300000000000001	-0.0	-0.0	-0.0	-10.463204383850098	20.79293632507324	-331.2321472167969	3.8399486541748047	-18.080808639526367	-353.541259765625	-0.0	-0.0	-0.0	-0.0	-0.0	-0.0	86092.71875	2537.556884765625	-5485.51025390625
0.17350000000000002	-0.0	-0.0	-0.0	-10.743816375732422	20.99625396728516	-332.99481201171875	3.662071704864502	-17.75265884399414	-354.5897521972656	-0.0	-0.0	-0.0	-0.0	-0.0	-0.0	86038.2578125	2461.6650390625	-5748.19775390625
0.17400000000000002	-0.0	-0.0	-0.0	-11.508155822753906	20.80486869812012	-331.9429626464844	3.637142181396485	-17.563243865966797	-356.3323669433594	-0.0	-0.0	-0.0	-0.0	-0.0	-0.0	86594.3203125	2378.123779296875	-5527.96435546875
0.17450000000000002	-0.0	-0.0	-0.0	-12.221839904785156	20.64107894897461	-333.60772705078125	3.637142181396485	-17.10871124267578	-358.1279602050781	-0.0	-0.0	-0.0	-0.0	-0.0	-0.0	86749.375	2577.72412109375	-5705.34326171875
0.17500000000000002	-0.0	-0.0	-0.0	-12.757102966308594	20.68906593322754	-336.675048828125	3.4986252784729004	-16.957763671875	-357.6252136230469	-0.0	-0.0	-0.0	-0.0	-0.0	-0.0	87305.828125	2611.18505859375	-5645.96826171875
0.17550000000000002	-0.0	-0.0	-0.0	-13.166489601135254	20.51311683654785	-337.182861328125	3.065759658813477	-16.970745086669922	-360.5710144042969	-0.0	-0.0	-0.0	-0.0	-0.0	-0.0	87921.9921875	2771.06494140625	-5722.93017578125
0.176	-0.0	-0.0	-0.0	-13.90362548828125	20.53959846496582	-336.7374267578125	2.2933638095855717	-17.121347427368164	-362.8079223632813	-0.0	-0.0	-0.0	-0.0	-0.0	-0.0	88347.4140625	2953.061279296875	-5843.1865234375
0.1765	-0.0	-0.0	-0.0	-13.969951629638672	19.4702262878418	-339.8494567871094	1.9648176431655884	-17.17377471923828	-364.566162109375	-0.0	-0.0	-0.0	-0.0	-0.0	-0.0	88737.8515625	2853.568603515625	-6033.57958984375
0.177	-0.0	-0.0	-0.0	-14.131048202514648	19.497146606445312	-341.508056640625	1.166497826576233	-18.115070343017575	-366.4526672363281	-0.0	-0.0	-0.0	-0.0	-0.0	-0.0	89461.21875	2999.32666015625	-6228.78759765625
0.1775	-0.0	-0.0	-0.0	-13.600257873535156	18.53912353515625	-340.1123046875	0.674262523651123	-18.14121437072754	-368.9484252929688	-0.0	-0.0	-0.0	-0.0	-0.0	-0.0	89860.546875	2882.563232421875	-6457.525390625
